<svg width="76" height="30" viewBox="0 0 76 30" fill="none" xmlns="http://www.w3.org/2000/svg">
<path d="M4.52867 4.79132C5.57205 3.52111 6.27364 1.75875 6.08295 0C4.58264 0.0615199 2.76572 1.00603 1.68996 2.27624C0.725731 3.39807 -0.119766 5.193 0.110497 6.91556C1.77631 7.04584 3.48889 6.0579 4.52867 4.79132ZM21.4386 19.6719L19.7117 24.9373H17.4918L23.144 8.20386H25.7345L31.4083 24.9373H29.1129L27.3355 19.6719H21.4386ZM26.893 17.9819L25.2668 13.1653C24.8962 12.0724 24.6515 11.0808 24.4033 10.111H24.3565C24.1082 11.1025 23.8384 12.1194 23.5182 13.1399L21.892 17.9783L26.893 17.9819ZM33.0921 16.842C33.0921 15.304 33.0453 14.0591 32.9914 12.9192H34.9414L35.0421 14.9819H35.0889C35.9776 13.5163 37.3844 12.6478 39.3344 12.6478C42.2235 12.6478 44.393 15.1049 44.393 18.7563C44.393 23.0772 41.7773 25.2087 38.9638 25.2087C37.3844 25.2087 36.0028 24.5139 35.2868 23.3233H35.24V29.8516H33.0921V16.842V16.842ZM35.2364 20.0446C35.2364 20.3703 35.2832 20.6635 35.3372 20.9385C35.7329 22.4511 37.039 23.497 38.5968 23.497C40.8923 23.497 42.2271 21.6116 42.2271 18.854C42.2271 16.4439 40.9678 14.3884 38.6724 14.3884C37.1937 14.3884 35.8121 15.456 35.3875 17.0953C35.312 17.3667 35.24 17.6924 35.24 17.9891L35.2364 20.0446ZM46.6381 16.842C46.6381 15.304 46.5913 14.0591 46.5373 12.9192H48.4874L48.5881 14.9819H48.6349C49.5235 13.5163 50.9303 12.6478 52.8804 12.6478C55.7694 12.6478 57.9389 15.1049 57.9389 18.7563C57.9389 23.0772 55.3233 25.2087 52.5098 25.2087C50.9303 25.2087 49.5487 24.5139 48.8328 23.3233H48.786V29.8516H46.6381V16.842V16.842ZM48.786 20.0446C48.786 20.3703 48.8328 20.6635 48.8867 20.9385C49.2825 22.4511 50.5885 23.497 52.1464 23.497C54.4418 23.497 55.7766 21.6116 55.7766 18.854C55.7766 16.4439 54.5174 14.3884 52.2219 14.3884C50.7432 14.3884 49.3616 15.456 48.9371 17.0953C48.8615 17.3667 48.7896 17.6924 48.7896 17.9891L48.786 20.0446ZM60.1876 7.31001H62.3607V24.9337H60.1876V7.31001ZM66.7285 19.3245C66.7753 22.2774 68.6534 23.497 70.8229 23.497C72.3772 23.497 73.3162 23.2256 74.1293 22.8782L74.4999 24.4415C73.7372 24.7889 72.4275 25.187 70.5279 25.187C66.8509 25.187 64.6526 22.7551 64.6526 19.1291C64.6526 15.503 66.7753 12.6478 70.2544 12.6478C74.1545 12.6478 75.1907 16.0965 75.1907 18.3076C75.1907 18.7563 75.1439 19.1001 75.1151 19.3245H66.7285ZM73.0967 17.7612C73.1219 16.3715 72.5283 14.2111 70.0853 14.2111C67.887 14.2111 66.9264 16.2485 66.7537 17.7612H73.0967V17.7612Z" fill="black"/>
</svg>



