<svg width="81" height="26" viewBox="0 0 81 26" fill="none" xmlns="http://www.w3.org/2000/svg">
<path fill-rule="evenodd" clip-rule="evenodd" d="M0.709473 23.6215L2.18051 20.1834C3.76942 21.3784 5.8864 21.9997 7.97509 21.9997C9.51685 21.9997 10.4928 21.4021 10.4928 20.4963C10.4693 17.9639 1.2564 19.9462 1.18568 13.5963C1.1621 10.3715 4.00988 7.88649 8.04581 7.88649C10.4457 7.88649 12.8408 8.48403 14.5523 9.84507L13.1756 13.3544C11.6103 12.349 9.66301 11.6329 7.81007 11.6329C6.5512 11.6329 5.72138 12.2305 5.72138 12.994C5.74495 15.479 15.0285 14.1179 15.1228 20.1834C15.1228 23.4793 12.3458 25.7983 8.35699 25.7983C5.43377 25.7935 2.75101 25.1011 0.709473 23.6215V23.6215ZM57.1983 18.9409C56.4628 20.2308 55.0861 21.1129 53.4924 21.1129C51.1397 21.1129 49.2443 19.2017 49.2443 16.84C49.2443 14.4783 51.1444 12.5672 53.4924 12.5672C55.0814 12.5672 56.4628 13.4492 57.1983 14.7392L61.2578 12.4723C59.7396 9.75023 56.8164 7.88649 53.4924 7.88649C48.5748 7.88649 44.5861 11.8985 44.5861 16.8448C44.5861 21.791 48.5748 25.803 53.4924 25.803C56.84 25.803 59.7396 23.963 61.2578 21.2172L57.1983 18.9409ZM17.1644 0.455261H22.247V25.4616H17.1644V0.455261ZM63.2522 0.455261V25.4616H68.3349V17.9592L74.3652 25.4616H80.8717L73.2006 16.5507L80.3012 8.23742H74.0776L68.3301 15.1375V0.455261H63.2522Z" fill="black"/>
</svg>



